HIERARCHY
ROOT Hips
{
	OFFSET 0.00000 0.00000 0.00000
	CHANNELS 6 Xposition Yposition Zposition Zrotation Yrotation Xrotation 
	JOINT LHipJoint
	{
		OFFSET 0 0 0
		CHANNELS 3 Zrotation Yrotation Xrotation
		JOINT LeftUpLeg
		{
			OFFSET 2.36090 -1.39315 1.24752
			CHANNELS 3 Zrotation Yrotation Xrotation
			JOINT LeftLeg
			{
				OFFSET 2.06810 -5.68207 0.00000
				CHANNELS 3 Zrotation Yrotation Xrotation
				JOINT LeftFoot
				{
					OFFSET 2.46631 -6.77613 0.00000
					CHANNELS 3 Zrotation Yrotation Xrotation
					JOINT LeftToeBase
					{
						OFFSET 0.26031 -0.71520 1.99545
						CHANNELS 3 Zrotation Yrotation Xrotation
						End Site
						{
							OFFSET 0.00000 -0.00000 1.05957
						}
					}
				}
			}
		}
	}
	JOINT RHipJoint
	{
		OFFSET 0 0 0
		CHANNELS 3 Zrotation Yrotation Xrotation
		JOINT RightUpLeg
		{
			OFFSET -2.25243 -1.39315 1.24752
			CHANNELS 3 Zrotation Yrotation Xrotation
			JOINT RightLeg
			{
				OFFSET -2.17343 -5.97145 0.00000
				CHANNELS 3 Zrotation Yrotation Xrotation
				JOINT RightFoot
				{
					OFFSET -2.52372 -6.93386 0.00000
					CHANNELS 3 Zrotation Yrotation Xrotation
					JOINT RightToeBase
					{
						OFFSET -0.22538 -0.61923 2.11447
						CHANNELS 3 Zrotation Yrotation Xrotation
						End Site
						{
							OFFSET -0.00000 -0.00000 1.10506
						}
					}
				}
			}
		}
	}
	JOINT LowerBack
	{
		OFFSET 0 0 0
		CHANNELS 3 Zrotation Yrotation Xrotation
		JOINT Spine
		{
			OFFSET 0.01594 2.13103 0.08007
			CHANNELS 3 Zrotation Yrotation Xrotation
			JOINT Spine1
			{
				OFFSET 0.01393 2.09723 0.18338
				CHANNELS 3 Zrotation Yrotation Xrotation
				JOINT Neck
				{
					OFFSET 0 0 0
					CHANNELS 3 Zrotation Yrotation Xrotation
					JOINT Neck1
					{
						OFFSET 0.05351 1.38915 0.32494
						CHANNELS 3 Zrotation Yrotation Xrotation
						JOINT Head
						{
							OFFSET 0.00711 1.45992 -0.21666
							CHANNELS 3 Zrotation Yrotation Xrotation
							End Site
							{
								OFFSET -0.00433 1.47702 -0.11056
							}
						}
					}
				}
				JOINT LeftShoulder
				{
					OFFSET 0 0 0
					CHANNELS 3 Zrotation Yrotation Xrotation
					JOINT LeftArm
					{
						OFFSET 2.87198 0.92249 0.11132
						CHANNELS 3 Zrotation Yrotation Xrotation
						JOINT LeftForeArm
						{
							OFFSET 5.52731 -0.00000 0.00000
							CHANNELS 3 Zrotation Yrotation Xrotation
							JOINT LeftHand
							{
								OFFSET 3.11059 -0.00000 0.00000
								CHANNELS 3 Zrotation Yrotation Xrotation
								JOINT LeftFingerBase
								{
									OFFSET 0 0 0
									CHANNELS 3 Zrotation Yrotation Xrotation
									JOINT LeftHandIndex1
									{
										OFFSET 0.41963 -0.00000 0.00000
										CHANNELS 3 Zrotation Yrotation Xrotation
										End Site
										{
											OFFSET 0.33831 -0.00000 0.00000
										}
									}
								}
								JOINT LThumb
								{
									OFFSET 0 0 0
									CHANNELS 3 Zrotation Yrotation Xrotation
									End Site
									{
										OFFSET 0.34348 -0.00000 0.34348
									}
								}
							}
						}
					}
				}
				JOINT RightShoulder
				{
					OFFSET 0 0 0
					CHANNELS 3 Zrotation Yrotation Xrotation
					JOINT RightArm
					{
						OFFSET -2.94710 0.68072 0.32187
						CHANNELS 3 Zrotation Yrotation Xrotation
						JOINT RightForeArm
						{
							OFFSET -5.25396 -0.00000 -0.00000
							CHANNELS 3 Zrotation Yrotation Xrotation
							JOINT RightHand
							{
								OFFSET -3.10567 -0.00000 0.00000
								CHANNELS 3 Zrotation Yrotation Xrotation
								JOINT RightFingerBase
								{
									OFFSET 0 0 0
									CHANNELS 3 Zrotation Yrotation Xrotation
									JOINT RightHandIndex1
									{
										OFFSET -0.49868 -0.00000 0.00000
										CHANNELS 3 Zrotation Yrotation Xrotation
										End Site
										{
											OFFSET -0.40204 -0.00000 0.00000
										}
									}
								}
								JOINT RThumb
								{
									OFFSET 0 0 0
									CHANNELS 3 Zrotation Yrotation Xrotation
									End Site
									{
										OFFSET -0.40818 -0.00000 0.40818
									}
								}
							}
						}
					}
				}
			}
		}
	}
}
MOTION
Frames: 5
Frame Time: .0083333
3.2015 15.0163 32.328 0 0 0 0 0 0 -21 0 0 0 0 0 0 0 0 0 0 0 0 0 0 21 0 0 0 0 0 0 0 0 0 0 0 0 0 0 0 0 0 0 0 0 0 0 -16 0 0 21 0 0 11 0 0 0 -8 0 0 0 0 0 0 0 0 0 0 0 0 0 0 0 0 0 0 0 0 8 0 0 0 0 0 0 0 0 0 0 0 0 0 0 0 0 0
3.2015 15.0163 32.3280 -145.8470 -87.7606 169.1810 0.0000 0.0000 0.0000 -19.4332 -18.8994 -39.1131 3.3596 11.2557 33.1470 0.5786 -1.5795 -13.9135 0.0922 -1.9588 -5.3919 0.0000 0.0000 0.0000 9.5307 27.9337 -52.7838 -8.4976 -16.4733 54.3358 -0.6766 -5.3364 -18.3868 -0.0747 -1.7633 4.8520 -3.1506 1.4602 -11.7108 0.6088 1.9373 -6.7506 2.6129 0.9430 -0.6309 15.2152 13.3943 -19.1605 5.4459 12.3753 18.7505 1.3650 7.3509 9.7908 0.0000 -0.0000 0.0000 -82.5299 -0.1237 40.6340 30.1012 -40.9800 -11.4759 -0.0000 0.0000 -54.4821 13.6185 12.4435 2.9883 -7.1250 0.0000 -0.0000 -12.2668 42.4412 0.7874 0.0000 -0.0000 0.0000 86.1405 -5.8077 23.5215 -50.8777 53.3434 -26.8767 0.0000 -0.0000 -56.1940 -31.1388 -42.7649 22.3045 7.1250 -0.0000 -0.0000 12.9254 -76.9107 -9.6930
3.2234 14.9867 32.3337 -144.7300 -87.6407 168.0500 0.0000 0.0000 0.0000 -19.3249 -18.6741 -39.8415 3.5416 11.5241 34.0685 0.6055 -1.9539 -14.1604 0.0883 -1.9166 -5.2753 0.0000 0.0000 0.0000 9.7523 27.5507 -53.7112 -8.8432 -16.7057 55.5462 -0.7252 -4.2464 -18.1803 -0.0693 -1.6986 4.6734 -3.2138 1.4278 -11.3703 0.7011 1.8987 -6.6860 2.7315 0.9323 -0.7503 15.3448 13.4751 -19.0188 5.3315 12.5047 18.6852 1.3185 7.4027 9.7646 0.0000 -0.0000 0.0000 -82.5215 -0.2603 40.7813 30.8521 -41.6127 -11.9715 -0.0000 0.0000 -54.8005 13.3815 12.5402 2.9568 -7.1250 0.0000 -0.0000 -12.4991 42.5141 0.7799 0.0000 -0.0000 0.0000 85.9676 -6.0834 24.4598 -52.9918 54.1331 -28.5814 0.0000 -0.0000 -56.8686 -29.4685 -42.6605 20.9522 7.1250 -0.0000 -0.0000 15.4756 -76.1769 -11.3853
3.2450 14.9563 32.3392 -143.5420 -87.5135 166.8650 0.0000 0.0000 0.0000 -19.1755 -18.5042 -40.6038 3.7398 11.8058 35.0485 0.6350 -2.2578 -14.4518 0.0855 -1.8858 -5.1901 0.0000 0.0000 0.0000 9.9273 27.2597 -54.5819 -9.1740 -16.9184 56.6899 -0.7619 -3.2197 -17.9616 -0.0487 -1.4247 3.9182 -2.9782 1.5284 -11.1516 0.5477 2.0192 -6.5449 2.4474 0.9859 -0.7122 15.4166 13.4872 -19.0413 5.4816 12.4579 18.5300 1.3470 7.3928 9.7075 -0.0000 0.0000 0.0000 -82.0912 -0.5949 41.2379 31.5883 -42.2165 -12.4633 -0.0000 0.0000 -55.0181 12.8953 12.7468 2.8918 -7.1250 0.0000 -0.0000 -12.9792 42.6711 0.7597 -0.0000 0.0000 0.0000 86.1302 -6.2834 25.1017 -55.1245 54.8642 -30.3178 0.0000 -0.0000 -57.6143 -27.7663 -42.5352 19.5922 7.1250 -0.0000 -0.0000 17.8540 -75.4212 -12.8747
3.2654 14.9233 32.3451 -140.9050 -87.4274 164.2980 0.0000 0.0000 0.0000 -18.9836 -18.3373 -41.4532 3.9371 12.0762 36.0021 0.6603 -2.6240 -14.6812 0.0859 -1.8900 -5.2017 0.0000 0.0000 0.0000 10.1058 27.0202 -55.4476 -9.4995 -17.1186 57.8019 -0.7545 -2.9445 -17.7321 -0.0138 -0.7575 2.0817 -2.8129 1.5698 -10.9371 0.5114 2.0596 -6.5071 2.3150 1.0040 -0.7824 16.0152 13.5410 -18.8470 5.0762 12.4811 18.5639 1.1285 7.3972 9.7598 0.0000 0.0000 0.0000 -81.8063 -0.7200 41.5913 32.2791 -42.7685 -12.9299 -0.0000 0.0000 -55.1734 12.7629 12.5199 2.8112 -7.1250 0.0000 -0.0000 -13.0372 42.4322 0.8416 0.0000 0.0000 0.0000 86.1694 -6.5600 25.6965 -57.0387 55.4678 -31.8891 0.0000 -0.0000 -58.2143 -25.6920 -42.5792 18.0308 7.1250 -0.0000 -0.0000 20.9545 -74.6875 -14.8285
